%TF.GenerationSoftware,KiCad,Pcbnew,(7.0.0)*%
%TF.CreationDate,2023-07-18T21:43:11+02:00*%
%TF.ProjectId,Catcar_Ringlight,43617463-6172-45f5-9269-6e676c696768,1.0*%
%TF.SameCoordinates,Original*%
%TF.FileFunction,Paste,Top*%
%TF.FilePolarity,Positive*%
%FSLAX46Y46*%
G04 Gerber Fmt 4.6, Leading zero omitted, Abs format (unit mm)*
G04 Created by KiCad (PCBNEW (7.0.0)) date 2023-07-18 21:43:11*
%MOMM*%
%LPD*%
G01*
G04 APERTURE LIST*
%ADD10R,1.200000X0.900000*%
%ADD11R,0.900000X1.200000*%
%ADD12R,2.400000X1.600000*%
%ADD13R,1.600000X2.400000*%
G04 APERTURE END LIST*
D10*
%TO.C,D36*%
X76649999Y-78349999D03*
X73849999Y-78349999D03*
X73849999Y-76649999D03*
X76649999Y-76649999D03*
%TD*%
D11*
%TO.C,D35*%
X68249999Y-84899999D03*
X68249999Y-87699999D03*
X69949999Y-87699999D03*
X69949999Y-84899999D03*
%TD*%
%TO.C,D34*%
X68249999Y-95899999D03*
X68249999Y-98699999D03*
X69949999Y-98699999D03*
X69949999Y-95899999D03*
%TD*%
%TO.C,D33*%
X68249999Y-106899999D03*
X68249999Y-109699999D03*
X69949999Y-109699999D03*
X69949999Y-106899999D03*
%TD*%
%TO.C,D32*%
X68249999Y-117899999D03*
X68249999Y-120699999D03*
X69949999Y-120699999D03*
X69949999Y-117899999D03*
%TD*%
D10*
%TO.C,D31*%
X79349999Y-123449999D03*
X82149999Y-123449999D03*
X82149999Y-121749999D03*
X79349999Y-121749999D03*
%TD*%
D12*
%TO.C,D30*%
X69099999Y-79374999D03*
X69099999Y-82224999D03*
%TD*%
%TO.C,D29*%
X69099999Y-90374999D03*
X69099999Y-93224999D03*
%TD*%
%TO.C,D28*%
X69099999Y-101374999D03*
X69099999Y-104224999D03*
%TD*%
%TO.C,D27*%
X69099999Y-112374999D03*
X69099999Y-115224999D03*
%TD*%
D13*
%TO.C,D26*%
X73824999Y-122599999D03*
X76674999Y-122599999D03*
%TD*%
%TO.C,D25*%
X84824999Y-122599999D03*
X87674999Y-122599999D03*
%TD*%
D10*
%TO.C,D24*%
X90349999Y-121749999D03*
X93149999Y-121749999D03*
X93149999Y-123449999D03*
X90349999Y-123449999D03*
%TD*%
%TO.C,D23*%
X101349999Y-121749999D03*
X104149999Y-121749999D03*
X104149999Y-123449999D03*
X101349999Y-123449999D03*
%TD*%
%TO.C,D22*%
X112349999Y-121749999D03*
X115149999Y-121749999D03*
X115149999Y-123449999D03*
X112349999Y-123449999D03*
%TD*%
%TO.C,D21*%
X123349999Y-121749999D03*
X126149999Y-121749999D03*
X126149999Y-123449999D03*
X123349999Y-123449999D03*
%TD*%
D11*
%TO.C,D20*%
X131749999Y-115199999D03*
X131749999Y-112399999D03*
X130049999Y-112399999D03*
X130049999Y-115199999D03*
%TD*%
%TO.C,D19*%
X131749999Y-104199999D03*
X131749999Y-101399999D03*
X130049999Y-101399999D03*
X130049999Y-104199999D03*
%TD*%
D13*
%TO.C,D18*%
X98674999Y-122599999D03*
X95824999Y-122599999D03*
%TD*%
%TO.C,D17*%
X109674999Y-122599999D03*
X106824999Y-122599999D03*
%TD*%
%TO.C,D16*%
X120674999Y-122599999D03*
X117824999Y-122599999D03*
%TD*%
D12*
%TO.C,D15*%
X130899999Y-117874999D03*
X130899999Y-120724999D03*
%TD*%
%TO.C,D14*%
X130899999Y-109724999D03*
X130899999Y-106874999D03*
%TD*%
%TO.C,D13*%
X130899999Y-98724999D03*
X130899999Y-95874999D03*
%TD*%
D11*
%TO.C,D12*%
X130049999Y-93199999D03*
X130049999Y-90399999D03*
X131749999Y-90399999D03*
X131749999Y-93199999D03*
%TD*%
%TO.C,D11*%
X131749999Y-82199999D03*
X131749999Y-79399999D03*
X130049999Y-79399999D03*
X130049999Y-82199999D03*
%TD*%
D10*
%TO.C,D10*%
X120649999Y-76649999D03*
X117849999Y-76649999D03*
X117849999Y-78349999D03*
X120649999Y-78349999D03*
%TD*%
D12*
%TO.C,D6*%
X130899999Y-84874999D03*
X130899999Y-87724999D03*
%TD*%
D13*
%TO.C,D5*%
X126174999Y-77499999D03*
X123324999Y-77499999D03*
%TD*%
%TO.C,D4*%
X115174999Y-77499999D03*
X112324999Y-77499999D03*
%TD*%
D10*
%TO.C,D9*%
X109649999Y-76649999D03*
X106849999Y-76649999D03*
X106849999Y-78349999D03*
X109649999Y-78349999D03*
%TD*%
%TO.C,D8*%
X98649999Y-76649999D03*
X95849999Y-76649999D03*
X95849999Y-78349999D03*
X98649999Y-78349999D03*
%TD*%
%TO.C,D7*%
X87649999Y-76649999D03*
X84849999Y-76649999D03*
X84849999Y-78349999D03*
X87649999Y-78349999D03*
%TD*%
D13*
%TO.C,D3*%
X104174999Y-77499999D03*
X101324999Y-77499999D03*
%TD*%
%TO.C,D2*%
X93174999Y-77499999D03*
X90324999Y-77499999D03*
%TD*%
%TO.C,D1*%
X82174999Y-77499999D03*
X79324999Y-77499999D03*
%TD*%
M02*
