M48
; DRILL file {KiCad (7.0.0)} date Tue Jul 18 21:43:12 2023
; FORMAT={-:-/ absolute / inch / decimal}
; #@! TF.CreationDate,2023-07-18T21:43:12+02:00
; #@! TF.GenerationSoftware,Kicad,Pcbnew,(7.0.0)
; #@! TF.FileFunction,Plated,1,4,PTH
FMAT,2
INCH
; #@! TA.AperFunction,Plated,PTH,ViaDrill
T1C0.0118
%
G90
G05
T1
X2.6545Y-3.3425
X2.6545Y-3.5571
X2.6545Y-3.7756
X2.6545Y-3.9911
X2.6545Y-4.2087
X2.6545Y-4.4242
X2.6545Y-4.6417
X2.7205Y-3.061
X2.7864Y-3.2377
X2.7864Y-3.4528
X2.7864Y-3.6708
X2.7864Y-3.8858
X2.7864Y-4.1038
X2.7864Y-4.3189
X2.7864Y-4.5364
X2.9055Y-2.9823
X2.9055Y-4.752
X2.9065Y-4.8927
X2.9075Y-3.1171
X3.0177Y-2.9843
X3.0188Y-4.7608
X3.123Y-3.1171
X3.124Y-4.8927
X3.1693Y-3.1161
X3.2343Y-4.7608
X3.2353Y-2.9852
X3.3395Y-4.8927
X3.3406Y-3.1171
X3.4055Y-4.7618
X3.4508Y-2.9852
X3.4518Y-4.7608
X3.556Y-3.1171
X3.5571Y-4.8937
X3.6673Y-4.7608
X3.6683Y-2.9852
X3.6713Y-4.8956
X3.7736Y-3.1171
X3.7736Y-4.8937
X3.8839Y-2.9852
X3.8853Y-4.7608
X3.9892Y-3.1171
X3.9902Y-4.8927
X4.1004Y-4.7608
X4.1014Y-2.9852
X4.2047Y-4.8927
X4.2067Y-3.1171
X4.3169Y-2.9852
X4.3184Y-4.7608
X4.4218Y-3.1171
X4.4232Y-4.8927
X4.5335Y-4.7608
X4.5344Y-2.9852
X4.6388Y-4.8927
X4.6398Y-3.1171
X4.75Y-2.9852
X4.7515Y-4.7608
X4.8548Y-3.1171
X4.8563Y-4.8927
X4.9665Y-4.7608
X4.9685Y-2.9852
X4.9705Y-3.126
X5.0689Y-3.7746
X5.0709Y-4.2106
X5.0728Y-4.0748
X5.0876Y-3.341
X5.0876Y-3.5591
X5.0876Y-4.4252
X5.0876Y-4.6407
X5.122Y-4.1437
X5.2087Y-4.0512
X5.2195Y-3.2362
X5.2195Y-4.3199
X5.2195Y-4.5354
X5.2195Y-4.753
X5.2224Y-3.4547
X5.2224Y-3.5571
X5.2224Y-3.6693
X5.2224Y-3.9331
X5.2244Y-3.8012
X5.2402Y-4.1024
T0
M30
