%TF.GenerationSoftware,KiCad,Pcbnew,(7.0.0)*%
%TF.CreationDate,2023-07-18T21:43:11+02:00*%
%TF.ProjectId,Catcar_Ringlight,43617463-6172-45f5-9269-6e676c696768,1.0*%
%TF.SameCoordinates,Original*%
%TF.FileFunction,Copper,L4,Bot*%
%TF.FilePolarity,Positive*%
%FSLAX46Y46*%
G04 Gerber Fmt 4.6, Leading zero omitted, Abs format (unit mm)*
G04 Created by KiCad (PCBNEW (7.0.0)) date 2023-07-18 21:43:11*
%MOMM*%
%LPD*%
G01*
G04 APERTURE LIST*
G04 Aperture macros list*
%AMRoundRect*
0 Rectangle with rounded corners*
0 $1 Rounding radius*
0 $2 $3 $4 $5 $6 $7 $8 $9 X,Y pos of 4 corners*
0 Add a 4 corners polygon primitive as box body*
4,1,4,$2,$3,$4,$5,$6,$7,$8,$9,$2,$3,0*
0 Add four circle primitives for the rounded corners*
1,1,$1+$1,$2,$3*
1,1,$1+$1,$4,$5*
1,1,$1+$1,$6,$7*
1,1,$1+$1,$8,$9*
0 Add four rect primitives between the rounded corners*
20,1,$1+$1,$2,$3,$4,$5,0*
20,1,$1+$1,$4,$5,$6,$7,0*
20,1,$1+$1,$6,$7,$8,$9,0*
20,1,$1+$1,$8,$9,$2,$3,0*%
G04 Aperture macros list end*
%TA.AperFunction,SMDPad,CuDef*%
%ADD10R,1.500000X1.500000*%
%TD*%
%TA.AperFunction,SMDPad,CuDef*%
%ADD11RoundRect,0.250000X0.625000X-0.312500X0.625000X0.312500X-0.625000X0.312500X-0.625000X-0.312500X0*%
%TD*%
%TA.AperFunction,SMDPad,CuDef*%
%ADD12RoundRect,0.250000X0.312500X0.625000X-0.312500X0.625000X-0.312500X-0.625000X0.312500X-0.625000X0*%
%TD*%
%TA.AperFunction,SMDPad,CuDef*%
%ADD13RoundRect,0.250000X-0.625000X0.312500X-0.625000X-0.312500X0.625000X-0.312500X0.625000X0.312500X0*%
%TD*%
%TA.AperFunction,SMDPad,CuDef*%
%ADD14RoundRect,0.250000X-0.312500X-0.625000X0.312500X-0.625000X0.312500X0.625000X-0.312500X0.625000X0*%
%TD*%
%TA.AperFunction,ViaPad*%
%ADD15C,0.500000*%
%TD*%
%TA.AperFunction,Conductor*%
%ADD16C,0.500000*%
%TD*%
%TA.AperFunction,Conductor*%
%ADD17C,0.350000*%
%TD*%
G04 APERTURE END LIST*
D10*
%TO.P,J3,1,Pin_1*%
%TO.N,VCCO*%
X132649999Y-101349999D03*
%TD*%
%TO.P,J2,1,Pin_1*%
%TO.N,GND*%
X130099999Y-100049999D03*
%TD*%
%TO.P,J1,1,Pin_1*%
%TO.N,VCCW*%
X132649999Y-98749999D03*
%TD*%
D11*
%TO.P,R36,1*%
%TO.N,Net-(D35-K)*%
X69100000Y-82262500D03*
%TO.P,R36,2*%
%TO.N,Net-(D36-A)*%
X69100000Y-79337500D03*
%TD*%
%TO.P,R35,1*%
%TO.N,Net-(D34-K)*%
X69100000Y-93262500D03*
%TO.P,R35,2*%
%TO.N,Net-(D35-A)*%
X69100000Y-90337500D03*
%TD*%
%TO.P,R34,1*%
%TO.N,Net-(D33-K)*%
X69100000Y-104262500D03*
%TO.P,R34,2*%
%TO.N,Net-(D34-A)*%
X69100000Y-101337500D03*
%TD*%
%TO.P,R33,1*%
%TO.N,Net-(D32-K)*%
X69100000Y-115262500D03*
%TO.P,R33,2*%
%TO.N,Net-(D33-A)*%
X69100000Y-112337500D03*
%TD*%
D12*
%TO.P,R32,1*%
%TO.N,Net-(D31-K)*%
X76712500Y-122600000D03*
%TO.P,R32,2*%
%TO.N,Net-(D32-A)*%
X73787500Y-122600000D03*
%TD*%
%TO.P,R31,1*%
%TO.N,VCCO*%
X87712500Y-122600000D03*
%TO.P,R31,2*%
%TO.N,Net-(D31-A)*%
X84787500Y-122600000D03*
%TD*%
D11*
%TO.P,R30,1*%
%TO.N,Net-(D29-K)*%
X69100000Y-87762500D03*
%TO.P,R30,2*%
%TO.N,Net-(D30-A)*%
X69100000Y-84837500D03*
%TD*%
%TO.P,R29,1*%
%TO.N,Net-(D28-K)*%
X69100000Y-98762500D03*
%TO.P,R29,2*%
%TO.N,Net-(D29-A)*%
X69100000Y-95837500D03*
%TD*%
%TO.P,R28,1*%
%TO.N,Net-(D27-K)*%
X69100000Y-109762500D03*
%TO.P,R28,2*%
%TO.N,Net-(D28-A)*%
X69100000Y-106837500D03*
%TD*%
%TO.P,R27,1*%
%TO.N,Net-(D26-K)*%
X69100000Y-120762500D03*
%TO.P,R27,2*%
%TO.N,Net-(D27-A)*%
X69100000Y-117837500D03*
%TD*%
D12*
%TO.P,R26,1*%
%TO.N,Net-(D25-K)*%
X82212500Y-122600000D03*
%TO.P,R26,2*%
%TO.N,Net-(D26-A)*%
X79287500Y-122600000D03*
%TD*%
%TO.P,R25,1*%
%TO.N,VCCW*%
X93212500Y-122600000D03*
%TO.P,R25,2*%
%TO.N,Net-(D25-A)*%
X90287500Y-122600000D03*
%TD*%
%TO.P,R24,2*%
%TO.N,Net-(D24-A)*%
X95787500Y-122600000D03*
%TO.P,R24,1*%
%TO.N,Net-(D23-K)*%
X98712500Y-122600000D03*
%TD*%
%TO.P,R23,2*%
%TO.N,Net-(D23-A)*%
X106787500Y-122600000D03*
%TO.P,R23,1*%
%TO.N,Net-(D22-K)*%
X109712500Y-122600000D03*
%TD*%
%TO.P,R22,2*%
%TO.N,Net-(D22-A)*%
X117787500Y-122600000D03*
%TO.P,R22,1*%
%TO.N,Net-(D21-K)*%
X120712500Y-122600000D03*
%TD*%
D13*
%TO.P,R21,2*%
%TO.N,Net-(D21-A)*%
X130900000Y-120762500D03*
%TO.P,R21,1*%
%TO.N,Net-(D20-K)*%
X130900000Y-117837500D03*
%TD*%
%TO.P,R20,1*%
%TO.N,Net-(D19-K)*%
X130900000Y-106837500D03*
%TO.P,R20,2*%
%TO.N,Net-(D20-A)*%
X130900000Y-109762500D03*
%TD*%
D12*
%TO.P,R19,1*%
%TO.N,VCCO*%
X132012500Y-104850000D03*
%TO.P,R19,2*%
%TO.N,Net-(D19-A)*%
X129087500Y-104850000D03*
%TD*%
%TO.P,R18,2*%
%TO.N,Net-(D18-A)*%
X101287500Y-122600000D03*
%TO.P,R18,1*%
%TO.N,Net-(D17-K)*%
X104212500Y-122600000D03*
%TD*%
%TO.P,R17,2*%
%TO.N,Net-(D17-A)*%
X112287500Y-122600000D03*
%TO.P,R17,1*%
%TO.N,Net-(D16-K)*%
X115212500Y-122600000D03*
%TD*%
%TO.P,R16,2*%
%TO.N,Net-(D16-A)*%
X123287500Y-122600000D03*
%TO.P,R16,1*%
%TO.N,Net-(D15-K)*%
X126212500Y-122600000D03*
%TD*%
D13*
%TO.P,R15,1*%
%TO.N,Net-(D14-K)*%
X130900000Y-112337500D03*
%TO.P,R15,2*%
%TO.N,Net-(D15-A)*%
X130900000Y-115262500D03*
%TD*%
D12*
%TO.P,R14,2*%
%TO.N,Net-(D14-A)*%
X129787500Y-95250000D03*
%TO.P,R14,1*%
%TO.N,Net-(D13-K)*%
X132712500Y-95250000D03*
%TD*%
D13*
%TO.P,R13,1*%
%TO.N,VCCW*%
X130900000Y-90337500D03*
%TO.P,R13,2*%
%TO.N,Net-(D13-A)*%
X130900000Y-93262500D03*
%TD*%
%TO.P,R12,2*%
%TO.N,Net-(D12-A)*%
X130900000Y-87762500D03*
%TO.P,R12,1*%
%TO.N,Net-(D11-K)*%
X130900000Y-84837500D03*
%TD*%
D14*
%TO.P,R11,1*%
%TO.N,Net-(D10-K)*%
X123287500Y-77500000D03*
%TO.P,R11,2*%
%TO.N,Net-(D11-A)*%
X126212500Y-77500000D03*
%TD*%
%TO.P,R10,1*%
%TO.N,Net-(D9-K)*%
X112287500Y-77500000D03*
%TO.P,R10,2*%
%TO.N,Net-(D10-A)*%
X115212500Y-77500000D03*
%TD*%
D13*
%TO.P,R6,2*%
%TO.N,Net-(D6-A)*%
X130900000Y-82262500D03*
%TO.P,R6,1*%
%TO.N,Net-(D5-K)*%
X130900000Y-79337500D03*
%TD*%
D14*
%TO.P,R5,1*%
%TO.N,Net-(D4-K)*%
X117787500Y-77500000D03*
%TO.P,R5,2*%
%TO.N,Net-(D5-A)*%
X120712500Y-77500000D03*
%TD*%
%TO.P,R4,1*%
%TO.N,Net-(D3-K)*%
X106787500Y-77500000D03*
%TO.P,R4,2*%
%TO.N,Net-(D4-A)*%
X109712500Y-77500000D03*
%TD*%
%TO.P,R9,1*%
%TO.N,Net-(D8-K)*%
X101287500Y-77500000D03*
%TO.P,R9,2*%
%TO.N,Net-(D9-A)*%
X104212500Y-77500000D03*
%TD*%
%TO.P,R8,1*%
%TO.N,Net-(D7-K)*%
X90287500Y-77500000D03*
%TO.P,R8,2*%
%TO.N,Net-(D8-A)*%
X93212500Y-77500000D03*
%TD*%
%TO.P,R7,1*%
%TO.N,VCCO*%
X79287500Y-77500000D03*
%TO.P,R7,2*%
%TO.N,Net-(D7-A)*%
X82212500Y-77500000D03*
%TD*%
%TO.P,R3,1*%
%TO.N,Net-(D2-K)*%
X95787500Y-77500000D03*
%TO.P,R3,2*%
%TO.N,Net-(D3-A)*%
X98712500Y-77500000D03*
%TD*%
%TO.P,R2,1*%
%TO.N,Net-(D1-K)*%
X84787500Y-77500000D03*
%TO.P,R2,2*%
%TO.N,Net-(D2-A)*%
X87712500Y-77500000D03*
%TD*%
%TO.P,R1,2*%
%TO.N,Net-(D1-A)*%
X76712500Y-77500000D03*
%TO.P,R1,1*%
%TO.N,VCCW*%
X73787500Y-77500000D03*
%TD*%
D15*
%TO.N,VCCO*%
X128800000Y-106950000D03*
X80500000Y-79150000D03*
X86500000Y-120950000D03*
%TO.N,GND*%
X132300000Y-102900000D03*
%TO.N,VCCW*%
X132650000Y-99900000D03*
X73800000Y-75750000D03*
X93250000Y-124349502D03*
X132650000Y-90350000D03*
%TO.N,GND*%
X90350000Y-124300000D03*
X132650000Y-87750000D03*
X132650000Y-93200000D03*
X95850000Y-124300000D03*
X69100000Y-77750000D03*
X76650000Y-75800000D03*
%TO.N,Net-(D14-A)*%
X130100000Y-105249502D03*
%TO.N,Net-(D13-K)*%
X132700000Y-96550000D03*
%TO.N,Net-(D19-A)*%
X128850000Y-103500000D03*
%TO.N,Net-(D33-A)*%
X70775000Y-109700000D03*
%TO.N,Net-(D32-A)*%
X73800000Y-120700000D03*
%TO.N,Net-(D32-K)*%
X67425000Y-117900000D03*
%TO.N,Net-(D31-A)*%
X82150000Y-120925000D03*
%TO.N,Net-(D31-K)*%
X79350000Y-124275000D03*
%TO.N,Net-(D27-A)*%
X70775000Y-115225000D03*
%TO.N,Net-(D26-A)*%
X76677500Y-120925000D03*
%TO.N,Net-(D26-K)*%
X73825000Y-124275000D03*
%TO.N,Net-(D25-A)*%
X87675000Y-120925000D03*
%TO.N,Net-(D25-K)*%
X84822500Y-124275000D03*
%TO.N,Net-(D29-A)*%
X70775000Y-93237500D03*
%TO.N,Net-(D28-A)*%
X70775000Y-104237500D03*
%TO.N,Net-(D30-A)*%
X70775000Y-82237500D03*
%TO.N,Net-(D34-A)*%
X70775000Y-98700000D03*
%TO.N,Net-(D35-A)*%
X70775000Y-87700000D03*
%TO.N,Net-(D36-A)*%
X73850000Y-79175000D03*
%TO.N,Net-(D27-K)*%
X67425000Y-112375000D03*
%TO.N,Net-(D28-K)*%
X67425000Y-101375000D03*
%TO.N,Net-(D29-K)*%
X67425000Y-90350000D03*
%TO.N,Net-(D33-K)*%
X67425000Y-106900000D03*
%TO.N,Net-(D34-K)*%
X67425000Y-95900000D03*
%TO.N,Net-(D35-K)*%
X67425000Y-84900000D03*
%TO.N,Net-(D21-A)*%
X126150000Y-120925000D03*
%TO.N,Net-(D20-A)*%
X129225000Y-112400000D03*
%TO.N,Net-(D20-K)*%
X132575000Y-115200000D03*
%TO.N,Net-(D19-K)*%
X133100000Y-104200000D03*
%TO.N,Net-(D15-A)*%
X129225000Y-117875000D03*
%TO.N,Net-(D14-K)*%
X132575000Y-109725000D03*
%TO.N,Net-(D13-A)*%
X128750000Y-95875000D03*
%TO.N,Net-(D17-A)*%
X109687500Y-120925000D03*
%TO.N,Net-(D16-A)*%
X120687500Y-120925000D03*
%TO.N,Net-(D18-A)*%
X98687500Y-120925000D03*
%TO.N,Net-(D22-A)*%
X115150000Y-120925000D03*
%TO.N,Net-(D23-A)*%
X104150000Y-120925000D03*
%TO.N,Net-(D24-A)*%
X93150000Y-120925000D03*
%TO.N,Net-(D15-K)*%
X132575000Y-120725000D03*
%TO.N,Net-(D16-K)*%
X117825000Y-124275000D03*
%TO.N,Net-(D17-K)*%
X106800000Y-124275000D03*
%TO.N,Net-(D21-K)*%
X123350000Y-124275000D03*
%TO.N,Net-(D22-K)*%
X112350000Y-124275000D03*
%TO.N,Net-(D23-K)*%
X101350000Y-124275000D03*
%TO.N,Net-(D11-K)*%
X132575000Y-82200000D03*
%TO.N,Net-(D10-K)*%
X120650000Y-75825000D03*
%TO.N,Net-(D9-K)*%
X109650000Y-75825000D03*
%TO.N,Net-(D5-K)*%
X126200000Y-75825000D03*
%TO.N,Net-(D4-K)*%
X115175000Y-75825000D03*
%TO.N,Net-(D3-K)*%
X104175000Y-75825000D03*
%TO.N,Net-(D12-A)*%
X129225000Y-90400000D03*
%TO.N,Net-(D11-A)*%
X126250000Y-79400000D03*
%TO.N,Net-(D10-A)*%
X117850000Y-79175000D03*
%TO.N,Net-(D6-A)*%
X129225000Y-84862500D03*
%TO.N,Net-(D4-A)*%
X112312500Y-79175000D03*
%TO.N,Net-(D5-A)*%
X123312500Y-79175000D03*
%TO.N,Net-(D1-K)*%
X82177500Y-75825000D03*
%TO.N,Net-(D1-A)*%
X79325000Y-79175000D03*
%TO.N,Net-(D2-K)*%
X93175000Y-75825000D03*
%TO.N,Net-(D2-A)*%
X90322500Y-79175000D03*
%TO.N,Net-(D3-A)*%
X101325000Y-79175000D03*
%TO.N,Net-(D7-K)*%
X87650000Y-75825000D03*
%TO.N,Net-(D7-A)*%
X84850000Y-79175000D03*
%TO.N,Net-(D8-K)*%
X98650000Y-75825000D03*
%TO.N,Net-(D8-A)*%
X95850000Y-79175000D03*
%TO.N,Net-(D9-A)*%
X106850000Y-79175000D03*
%TD*%
D16*
%TO.N,VCCO*%
X132012500Y-104177449D02*
X132012500Y-104850000D01*
X133000000Y-103189949D02*
X132012500Y-104177449D01*
X133000000Y-101700000D02*
X133000000Y-103189949D01*
X132650000Y-101350000D02*
X133000000Y-101700000D01*
D17*
X128808883Y-106950000D02*
X128800000Y-106950000D01*
X129884381Y-105874502D02*
X128808883Y-106950000D01*
X130987998Y-105874502D02*
X129884381Y-105874502D01*
X132012500Y-104850000D02*
X130987998Y-105874502D01*
D16*
%TO.N,Net-(D14-A)*%
X128850000Y-102510050D02*
X128850000Y-97250000D01*
X130100000Y-103760050D02*
X128850000Y-102510050D01*
X130100000Y-105249502D02*
X130100000Y-103760050D01*
X128850000Y-97250000D02*
X129787500Y-96312500D01*
X129787500Y-96312500D02*
X129787500Y-95250000D01*
%TO.N,VCCO*%
X79287500Y-77937500D02*
X80500000Y-79150000D01*
X79287500Y-77500000D02*
X79287500Y-77937500D01*
X87712500Y-122162500D02*
X86500000Y-120950000D01*
X87712500Y-122600000D02*
X87712500Y-122162500D01*
%TO.N,GND*%
X131700000Y-102900000D02*
X132300000Y-102900000D01*
X130100000Y-101300000D02*
X131700000Y-102900000D01*
X130100000Y-100050000D02*
X130100000Y-101300000D01*
%TO.N,VCCW*%
X132650000Y-98750000D02*
X132650000Y-99900000D01*
X73787500Y-75762500D02*
X73800000Y-75750000D01*
X73787500Y-77500000D02*
X73787500Y-75762500D01*
X93212500Y-124312002D02*
X93250000Y-124349502D01*
X93212500Y-122600000D02*
X93212500Y-124312002D01*
X132637500Y-90337500D02*
X132650000Y-90350000D01*
X130900000Y-90337500D02*
X132637500Y-90337500D01*
%TO.N,Net-(D11-A)*%
X126250000Y-77537500D02*
X126212500Y-77500000D01*
X126250000Y-79400000D02*
X126250000Y-77537500D01*
%TO.N,Net-(D32-A)*%
X73800000Y-122587500D02*
X73787500Y-122600000D01*
X73800000Y-120700000D02*
X73800000Y-122587500D01*
%TO.N,Net-(D13-K)*%
X132712500Y-96537500D02*
X132700000Y-96550000D01*
X132712500Y-95250000D02*
X132712500Y-96537500D01*
%TO.N,Net-(D19-A)*%
X129087500Y-103737500D02*
X128850000Y-103500000D01*
X129087500Y-104850000D02*
X129087500Y-103737500D01*
%TO.N,Net-(D19-K)*%
X132012500Y-106812500D02*
X130900000Y-106812500D01*
X133100000Y-105725000D02*
X132012500Y-106812500D01*
X133100000Y-104200000D02*
X133100000Y-105725000D01*
%TO.N,Net-(D13-A)*%
X129337500Y-93262500D02*
X130900000Y-93262500D01*
X128750000Y-93850000D02*
X129337500Y-93262500D01*
X128750000Y-95875000D02*
X128750000Y-93850000D01*
%TO.N,Net-(D5-K)*%
X130900000Y-78600000D02*
X130900000Y-79337500D01*
X126200000Y-75825000D02*
X128125000Y-75825000D01*
X128125000Y-75825000D02*
X130900000Y-78600000D01*
%TO.N,Net-(D15-K)*%
X132225000Y-120750000D02*
X132225000Y-121364949D01*
X132250000Y-120725000D02*
X132225000Y-120750000D01*
X132225000Y-121364949D02*
X130989949Y-122600000D01*
X132575000Y-120725000D02*
X132250000Y-120725000D01*
X130989949Y-122600000D02*
X126212500Y-122600000D01*
%TO.N,Net-(D21-A)*%
X126312500Y-120762500D02*
X126150000Y-120925000D01*
X130900000Y-120762500D02*
X126312500Y-120762500D01*
%TO.N,Net-(D26-K)*%
X69100000Y-121800000D02*
X69100000Y-120762500D01*
X71575000Y-124275000D02*
X69100000Y-121800000D01*
X73825000Y-124275000D02*
X71575000Y-124275000D01*
%TO.N,Net-(D36-A)*%
X73687500Y-79337500D02*
X73850000Y-79175000D01*
X69100000Y-79337500D02*
X73687500Y-79337500D01*
%TO.N,Net-(D33-A)*%
X70212500Y-112312500D02*
X69100000Y-112312500D01*
X70775000Y-111750000D02*
X70212500Y-112312500D01*
%TO.N,Net-(D32-K)*%
X67425000Y-115850000D02*
X67987500Y-115287500D01*
X67987500Y-115287500D02*
X69100000Y-115287500D01*
%TO.N,Net-(D31-A)*%
X84762500Y-121487500D02*
X84762500Y-122600000D01*
X84200000Y-120925000D02*
X84762500Y-121487500D01*
%TO.N,Net-(D31-K)*%
X76737500Y-123712500D02*
X76737500Y-122600000D01*
X77300000Y-124275000D02*
X76737500Y-123712500D01*
%TO.N,Net-(D27-A)*%
X70775000Y-117275000D02*
X70212500Y-117837500D01*
X70212500Y-117837500D02*
X69100000Y-117837500D01*
%TO.N,Net-(D26-A)*%
X78727500Y-120925000D02*
X79290000Y-121487500D01*
X79290000Y-121487500D02*
X79290000Y-122600000D01*
%TO.N,Net-(D25-A)*%
X90287500Y-121487500D02*
X90287500Y-122600000D01*
X89725000Y-120925000D02*
X90287500Y-121487500D01*
%TO.N,Net-(D25-K)*%
X82210000Y-123712500D02*
X82210000Y-122600000D01*
X82772500Y-124275000D02*
X82210000Y-123712500D01*
%TO.N,Net-(D29-A)*%
X70775000Y-95287500D02*
X70212500Y-95850000D01*
X70212500Y-95850000D02*
X69100000Y-95850000D01*
%TO.N,Net-(D28-A)*%
X70775000Y-106287500D02*
X70212500Y-106850000D01*
X70212500Y-106850000D02*
X69100000Y-106850000D01*
%TO.N,Net-(D30-A)*%
X70775000Y-84287500D02*
X70212500Y-84850000D01*
X70212500Y-84850000D02*
X69100000Y-84850000D01*
%TO.N,Net-(D34-A)*%
X70212500Y-101312500D02*
X69100000Y-101312500D01*
X70775000Y-100750000D02*
X70212500Y-101312500D01*
%TO.N,Net-(D35-A)*%
X70212500Y-90312500D02*
X69100000Y-90312500D01*
X70775000Y-89750000D02*
X70212500Y-90312500D01*
%TO.N,Net-(D27-K)*%
X67425000Y-110325000D02*
X67987500Y-109762500D01*
X67987500Y-109762500D02*
X69100000Y-109762500D01*
%TO.N,Net-(D28-K)*%
X67425000Y-99325000D02*
X67987500Y-98762500D01*
X67987500Y-98762500D02*
X69100000Y-98762500D01*
%TO.N,Net-(D29-K)*%
X67425000Y-88300000D02*
X67987500Y-87737500D01*
X67987500Y-87737500D02*
X69100000Y-87737500D01*
%TO.N,Net-(D33-K)*%
X67425000Y-104850000D02*
X67987500Y-104287500D01*
X67987500Y-104287500D02*
X69100000Y-104287500D01*
%TO.N,Net-(D34-K)*%
X67425000Y-93850000D02*
X67987500Y-93287500D01*
X67987500Y-93287500D02*
X69100000Y-93287500D01*
%TO.N,Net-(D35-K)*%
X67425000Y-82850000D02*
X67987500Y-82287500D01*
X67987500Y-82287500D02*
X69100000Y-82287500D01*
%TO.N,Net-(D25-A)*%
X89725000Y-120925000D02*
X87675000Y-120925000D01*
%TO.N,Net-(D31-A)*%
X84200000Y-120925000D02*
X82150000Y-120925000D01*
%TO.N,Net-(D26-A)*%
X78727500Y-120925000D02*
X76677500Y-120925000D01*
%TO.N,Net-(D27-A)*%
X70775000Y-117275000D02*
X70775000Y-115225000D01*
%TO.N,Net-(D33-A)*%
X70775000Y-111750000D02*
X70775000Y-109700000D01*
%TO.N,Net-(D28-A)*%
X70775000Y-106287500D02*
X70775000Y-104237500D01*
%TO.N,Net-(D34-A)*%
X70775000Y-100750000D02*
X70775000Y-98700000D01*
%TO.N,Net-(D29-A)*%
X70775000Y-95287500D02*
X70775000Y-93237500D01*
%TO.N,Net-(D35-A)*%
X70775000Y-89750000D02*
X70775000Y-87700000D01*
%TO.N,Net-(D30-A)*%
X70775000Y-84287500D02*
X70775000Y-82237500D01*
%TO.N,Net-(D35-K)*%
X67425000Y-82850000D02*
X67425000Y-84900000D01*
%TO.N,Net-(D29-K)*%
X67425000Y-88300000D02*
X67425000Y-90350000D01*
%TO.N,Net-(D34-K)*%
X67425000Y-93850000D02*
X67425000Y-95900000D01*
%TO.N,Net-(D28-K)*%
X67425000Y-99325000D02*
X67425000Y-101375000D01*
%TO.N,Net-(D33-K)*%
X67425000Y-104850000D02*
X67425000Y-106900000D01*
%TO.N,Net-(D27-K)*%
X67425000Y-110325000D02*
X67425000Y-112375000D01*
%TO.N,Net-(D32-K)*%
X67425000Y-115850000D02*
X67425000Y-117900000D01*
%TO.N,Net-(D31-K)*%
X77300000Y-124275000D02*
X79350000Y-124275000D01*
%TO.N,Net-(D25-K)*%
X82772500Y-124275000D02*
X84822500Y-124275000D01*
%TO.N,Net-(D20-A)*%
X129225000Y-110350000D02*
X129787500Y-109787500D01*
X129787500Y-109787500D02*
X130900000Y-109787500D01*
%TO.N,Net-(D20-K)*%
X132575000Y-117250000D02*
X132012500Y-117812500D01*
X132012500Y-117812500D02*
X130900000Y-117812500D01*
%TO.N,Net-(D15-A)*%
X129225000Y-115825000D02*
X129787500Y-115262500D01*
X129787500Y-115262500D02*
X130900000Y-115262500D01*
%TO.N,Net-(D14-K)*%
X132012500Y-112337500D02*
X130900000Y-112337500D01*
X132575000Y-111775000D02*
X132012500Y-112337500D01*
%TO.N,Net-(D17-A)*%
X111737500Y-120925000D02*
X112300000Y-121487500D01*
X112300000Y-121487500D02*
X112300000Y-122600000D01*
%TO.N,Net-(D16-A)*%
X122737500Y-120925000D02*
X123300000Y-121487500D01*
X123300000Y-121487500D02*
X123300000Y-122600000D01*
%TO.N,Net-(D18-A)*%
X100737500Y-120925000D02*
X101300000Y-121487500D01*
X101300000Y-121487500D02*
X101300000Y-122600000D01*
%TO.N,Net-(D22-A)*%
X117762500Y-121487500D02*
X117762500Y-122600000D01*
X117200000Y-120925000D02*
X117762500Y-121487500D01*
%TO.N,Net-(D23-A)*%
X106762500Y-121487500D02*
X106762500Y-122600000D01*
X106200000Y-120925000D02*
X106762500Y-121487500D01*
%TO.N,Net-(D24-A)*%
X95762500Y-121487500D02*
X95762500Y-122600000D01*
X95200000Y-120925000D02*
X95762500Y-121487500D01*
%TO.N,Net-(D16-K)*%
X115775000Y-124275000D02*
X115212500Y-123712500D01*
X115212500Y-123712500D02*
X115212500Y-122600000D01*
%TO.N,Net-(D17-K)*%
X104750000Y-124275000D02*
X104187500Y-123712500D01*
X104187500Y-123712500D02*
X104187500Y-122600000D01*
%TO.N,Net-(D21-K)*%
X121300000Y-124275000D02*
X120737500Y-123712500D01*
X120737500Y-123712500D02*
X120737500Y-122600000D01*
%TO.N,Net-(D22-K)*%
X110300000Y-124275000D02*
X109737500Y-123712500D01*
X109737500Y-123712500D02*
X109737500Y-122600000D01*
%TO.N,Net-(D23-K)*%
X99300000Y-124275000D02*
X98737500Y-123712500D01*
X98737500Y-123712500D02*
X98737500Y-122600000D01*
%TO.N,Net-(D20-A)*%
X129225000Y-110350000D02*
X129225000Y-112400000D01*
%TO.N,Net-(D15-A)*%
X129225000Y-115825000D02*
X129225000Y-117875000D01*
%TO.N,Net-(D16-A)*%
X122737500Y-120925000D02*
X120687500Y-120925000D01*
%TO.N,Net-(D22-A)*%
X117200000Y-120925000D02*
X115150000Y-120925000D01*
%TO.N,Net-(D17-A)*%
X111737500Y-120925000D02*
X109687500Y-120925000D01*
%TO.N,Net-(D23-A)*%
X106200000Y-120925000D02*
X104150000Y-120925000D01*
%TO.N,Net-(D18-A)*%
X100737500Y-120925000D02*
X98687500Y-120925000D01*
%TO.N,Net-(D24-A)*%
X95200000Y-120925000D02*
X93150000Y-120925000D01*
%TO.N,Net-(D23-K)*%
X99300000Y-124275000D02*
X101350000Y-124275000D01*
%TO.N,Net-(D17-K)*%
X104750000Y-124275000D02*
X106800000Y-124275000D01*
%TO.N,Net-(D22-K)*%
X110300000Y-124275000D02*
X112350000Y-124275000D01*
%TO.N,Net-(D16-K)*%
X115775000Y-124275000D02*
X117825000Y-124275000D01*
%TO.N,Net-(D21-K)*%
X121300000Y-124275000D02*
X123350000Y-124275000D01*
%TO.N,Net-(D20-K)*%
X132575000Y-117250000D02*
X132575000Y-115200000D01*
%TO.N,Net-(D14-K)*%
X132575000Y-111775000D02*
X132575000Y-109725000D01*
%TO.N,Net-(D1-K)*%
X84227500Y-75825000D02*
X82177500Y-75825000D01*
%TO.N,Net-(D7-K)*%
X89700000Y-75825000D02*
X87650000Y-75825000D01*
%TO.N,Net-(D2-K)*%
X95225000Y-75825000D02*
X93175000Y-75825000D01*
%TO.N,Net-(D8-K)*%
X100700000Y-75825000D02*
X98650000Y-75825000D01*
%TO.N,Net-(D3-K)*%
X106225000Y-75825000D02*
X104175000Y-75825000D01*
%TO.N,Net-(D9-K)*%
X111700000Y-75825000D02*
X109650000Y-75825000D01*
%TO.N,Net-(D4-K)*%
X117225000Y-75825000D02*
X115175000Y-75825000D01*
%TO.N,Net-(D10-K)*%
X122700000Y-75825000D02*
X120650000Y-75825000D01*
%TO.N,Net-(D11-K)*%
X132575000Y-84250000D02*
X132575000Y-82200000D01*
%TO.N,Net-(D12-A)*%
X129225000Y-88350000D02*
X129225000Y-90400000D01*
%TO.N,Net-(D6-A)*%
X129225000Y-82812500D02*
X129225000Y-84862500D01*
%TO.N,Net-(D5-A)*%
X121262500Y-79175000D02*
X123312500Y-79175000D01*
%TO.N,Net-(D10-A)*%
X115800000Y-79175000D02*
X117850000Y-79175000D01*
%TO.N,Net-(D4-A)*%
X110262500Y-79175000D02*
X112312500Y-79175000D01*
%TO.N,Net-(D9-A)*%
X104800000Y-79175000D02*
X106850000Y-79175000D01*
%TO.N,Net-(D3-A)*%
X99275000Y-79175000D02*
X101325000Y-79175000D01*
%TO.N,Net-(D8-A)*%
X93800000Y-79175000D02*
X95850000Y-79175000D01*
%TO.N,Net-(D2-A)*%
X88272500Y-79175000D02*
X90322500Y-79175000D01*
%TO.N,Net-(D7-A)*%
X82800000Y-79175000D02*
X84850000Y-79175000D01*
%TO.N,Net-(D1-A)*%
X77275000Y-79175000D02*
X79325000Y-79175000D01*
%TO.N,Net-(D11-K)*%
X132012500Y-84812500D02*
X130900000Y-84812500D01*
X132575000Y-84250000D02*
X132012500Y-84812500D01*
%TO.N,Net-(D10-K)*%
X123262500Y-76387500D02*
X123262500Y-77500000D01*
X122700000Y-75825000D02*
X123262500Y-76387500D01*
%TO.N,Net-(D9-K)*%
X112262500Y-76387500D02*
X112262500Y-77500000D01*
X111700000Y-75825000D02*
X112262500Y-76387500D01*
%TO.N,Net-(D4-K)*%
X117787500Y-76387500D02*
X117787500Y-77500000D01*
X117225000Y-75825000D02*
X117787500Y-76387500D01*
%TO.N,Net-(D3-K)*%
X106787500Y-76387500D02*
X106787500Y-77500000D01*
X106225000Y-75825000D02*
X106787500Y-76387500D01*
%TO.N,Net-(D12-A)*%
X129225000Y-88350000D02*
X129787500Y-87787500D01*
X129787500Y-87787500D02*
X130900000Y-87787500D01*
%TO.N,Net-(D10-A)*%
X115800000Y-79175000D02*
X115237500Y-78612500D01*
X115237500Y-78612500D02*
X115237500Y-77500000D01*
%TO.N,Net-(D6-A)*%
X129787500Y-82250000D02*
X130900000Y-82250000D01*
X129225000Y-82812500D02*
X129787500Y-82250000D01*
%TO.N,Net-(D4-A)*%
X109700000Y-78612500D02*
X109700000Y-77500000D01*
X110262500Y-79175000D02*
X109700000Y-78612500D01*
%TO.N,Net-(D5-A)*%
X120700000Y-78612500D02*
X120700000Y-77500000D01*
X121262500Y-79175000D02*
X120700000Y-78612500D01*
%TO.N,Net-(D1-K)*%
X84227500Y-75825000D02*
X84790000Y-76387500D01*
X84790000Y-76387500D02*
X84790000Y-77500000D01*
%TO.N,Net-(D1-A)*%
X77275000Y-79175000D02*
X76712500Y-78612500D01*
X76712500Y-78612500D02*
X76712500Y-77500000D01*
%TO.N,Net-(D2-K)*%
X95225000Y-75825000D02*
X95787500Y-76387500D01*
X95787500Y-76387500D02*
X95787500Y-77500000D01*
%TO.N,Net-(D2-A)*%
X87710000Y-78612500D02*
X87710000Y-77500000D01*
X88272500Y-79175000D02*
X87710000Y-78612500D01*
%TO.N,Net-(D3-A)*%
X98712500Y-78612500D02*
X98712500Y-77500000D01*
X99275000Y-79175000D02*
X98712500Y-78612500D01*
%TO.N,Net-(D7-K)*%
X89700000Y-75825000D02*
X90262500Y-76387500D01*
X90262500Y-76387500D02*
X90262500Y-77500000D01*
%TO.N,Net-(D7-A)*%
X82800000Y-79175000D02*
X82237500Y-78612500D01*
X82237500Y-78612500D02*
X82237500Y-77500000D01*
%TO.N,Net-(D8-K)*%
X101262500Y-76387500D02*
X101262500Y-77500000D01*
X100700000Y-75825000D02*
X101262500Y-76387500D01*
%TO.N,Net-(D8-A)*%
X93237500Y-78612500D02*
X93237500Y-77500000D01*
X93800000Y-79175000D02*
X93237500Y-78612500D01*
%TO.N,Net-(D9-A)*%
X104800000Y-79175000D02*
X104237500Y-78612500D01*
X104237500Y-78612500D02*
X104237500Y-77500000D01*
%TD*%
M02*
