%TF.GenerationSoftware,KiCad,Pcbnew,(7.0.0)*%
%TF.CreationDate,2023-07-18T21:43:10+02:00*%
%TF.ProjectId,Catcar_Ringlight,43617463-6172-45f5-9269-6e676c696768,1.0*%
%TF.SameCoordinates,Original*%
%TF.FileFunction,Copper,L1,Top*%
%TF.FilePolarity,Positive*%
%FSLAX46Y46*%
G04 Gerber Fmt 4.6, Leading zero omitted, Abs format (unit mm)*
G04 Created by KiCad (PCBNEW (7.0.0)) date 2023-07-18 21:43:10*
%MOMM*%
%LPD*%
G01*
G04 APERTURE LIST*
%TA.AperFunction,SMDPad,CuDef*%
%ADD10R,1.200000X0.900000*%
%TD*%
%TA.AperFunction,SMDPad,CuDef*%
%ADD11R,0.900000X1.200000*%
%TD*%
%TA.AperFunction,SMDPad,CuDef*%
%ADD12R,2.400000X1.600000*%
%TD*%
%TA.AperFunction,SMDPad,CuDef*%
%ADD13R,1.600000X2.400000*%
%TD*%
%TA.AperFunction,ViaPad*%
%ADD14C,0.500000*%
%TD*%
%TA.AperFunction,Conductor*%
%ADD15C,0.500000*%
%TD*%
G04 APERTURE END LIST*
D10*
%TO.P,D36,2,A*%
%TO.N,Net-(D36-A)*%
X76649999Y-78349999D03*
X73849999Y-78349999D03*
X73849999Y-76649999D03*
%TO.P,D36,1,K*%
%TO.N,GND*%
X76649999Y-76649999D03*
%TD*%
D11*
%TO.P,D35,1,K*%
%TO.N,Net-(D35-K)*%
X68249999Y-84899999D03*
%TO.P,D35,2,A*%
%TO.N,Net-(D35-A)*%
X68249999Y-87699999D03*
X69949999Y-87699999D03*
X69949999Y-84899999D03*
%TD*%
%TO.P,D34,1,K*%
%TO.N,Net-(D34-K)*%
X68249999Y-95899999D03*
%TO.P,D34,2,A*%
%TO.N,Net-(D34-A)*%
X68249999Y-98699999D03*
X69949999Y-98699999D03*
X69949999Y-95899999D03*
%TD*%
%TO.P,D33,1,K*%
%TO.N,Net-(D33-K)*%
X68249999Y-106899999D03*
%TO.P,D33,2,A*%
%TO.N,Net-(D33-A)*%
X68249999Y-109699999D03*
X69949999Y-109699999D03*
X69949999Y-106899999D03*
%TD*%
%TO.P,D32,1,K*%
%TO.N,Net-(D32-K)*%
X68249999Y-117899999D03*
%TO.P,D32,2,A*%
%TO.N,Net-(D32-A)*%
X68249999Y-120699999D03*
X69949999Y-120699999D03*
X69949999Y-117899999D03*
%TD*%
D10*
%TO.P,D31,1,K*%
%TO.N,Net-(D31-K)*%
X79349999Y-123449999D03*
%TO.P,D31,2,A*%
%TO.N,Net-(D31-A)*%
X82149999Y-123449999D03*
X82149999Y-121749999D03*
X79349999Y-121749999D03*
%TD*%
D12*
%TO.P,D30,1,K*%
%TO.N,GND*%
X69099999Y-79374999D03*
%TO.P,D30,2,A*%
%TO.N,Net-(D30-A)*%
X69099999Y-82224999D03*
%TD*%
%TO.P,D29,1,K*%
%TO.N,Net-(D29-K)*%
X69099999Y-90374999D03*
%TO.P,D29,2,A*%
%TO.N,Net-(D29-A)*%
X69099999Y-93224999D03*
%TD*%
%TO.P,D28,1,K*%
%TO.N,Net-(D28-K)*%
X69099999Y-101374999D03*
%TO.P,D28,2,A*%
%TO.N,Net-(D28-A)*%
X69099999Y-104224999D03*
%TD*%
%TO.P,D27,1,K*%
%TO.N,Net-(D27-K)*%
X69099999Y-112374999D03*
%TO.P,D27,2,A*%
%TO.N,Net-(D27-A)*%
X69099999Y-115224999D03*
%TD*%
D13*
%TO.P,D26,1,K*%
%TO.N,Net-(D26-K)*%
X73824999Y-122599999D03*
%TO.P,D26,2,A*%
%TO.N,Net-(D26-A)*%
X76674999Y-122599999D03*
%TD*%
%TO.P,D25,1,K*%
%TO.N,Net-(D25-K)*%
X84824999Y-122599999D03*
%TO.P,D25,2,A*%
%TO.N,Net-(D25-A)*%
X87674999Y-122599999D03*
%TD*%
D10*
%TO.P,D24,2,A*%
%TO.N,Net-(D24-A)*%
X90349999Y-121749999D03*
X93149999Y-121749999D03*
X93149999Y-123449999D03*
%TO.P,D24,1,K*%
%TO.N,GND*%
X90349999Y-123449999D03*
%TD*%
%TO.P,D23,2,A*%
%TO.N,Net-(D23-A)*%
X101349999Y-121749999D03*
X104149999Y-121749999D03*
X104149999Y-123449999D03*
%TO.P,D23,1,K*%
%TO.N,Net-(D23-K)*%
X101349999Y-123449999D03*
%TD*%
%TO.P,D22,2,A*%
%TO.N,Net-(D22-A)*%
X112349999Y-121749999D03*
X115149999Y-121749999D03*
X115149999Y-123449999D03*
%TO.P,D22,1,K*%
%TO.N,Net-(D22-K)*%
X112349999Y-123449999D03*
%TD*%
%TO.P,D21,2,A*%
%TO.N,Net-(D21-A)*%
X123349999Y-121749999D03*
X126149999Y-121749999D03*
X126149999Y-123449999D03*
%TO.P,D21,1,K*%
%TO.N,Net-(D21-K)*%
X123349999Y-123449999D03*
%TD*%
D11*
%TO.P,D20,1,K*%
%TO.N,Net-(D20-K)*%
X131749999Y-115199999D03*
%TO.P,D20,2,A*%
%TO.N,Net-(D20-A)*%
X131749999Y-112399999D03*
X130049999Y-112399999D03*
X130049999Y-115199999D03*
%TD*%
%TO.P,D19,1,K*%
%TO.N,Net-(D19-K)*%
X131749999Y-104199999D03*
%TO.P,D19,2,A*%
%TO.N,Net-(D19-A)*%
X131749999Y-101399999D03*
X130049999Y-101399999D03*
X130049999Y-104199999D03*
%TD*%
D13*
%TO.P,D18,2,A*%
%TO.N,Net-(D18-A)*%
X98674999Y-122599999D03*
%TO.P,D18,1,K*%
%TO.N,GND*%
X95824999Y-122599999D03*
%TD*%
%TO.P,D17,2,A*%
%TO.N,Net-(D17-A)*%
X109674999Y-122599999D03*
%TO.P,D17,1,K*%
%TO.N,Net-(D17-K)*%
X106824999Y-122599999D03*
%TD*%
%TO.P,D16,2,A*%
%TO.N,Net-(D16-A)*%
X120674999Y-122599999D03*
%TO.P,D16,1,K*%
%TO.N,Net-(D16-K)*%
X117824999Y-122599999D03*
%TD*%
D12*
%TO.P,D15,2,A*%
%TO.N,Net-(D15-A)*%
X130899999Y-117874999D03*
%TO.P,D15,1,K*%
%TO.N,Net-(D15-K)*%
X130899999Y-120724999D03*
%TD*%
%TO.P,D14,1,K*%
%TO.N,Net-(D14-K)*%
X130899999Y-109724999D03*
%TO.P,D14,2,A*%
%TO.N,Net-(D14-A)*%
X130899999Y-106874999D03*
%TD*%
%TO.P,D13,1,K*%
%TO.N,Net-(D13-K)*%
X130899999Y-98724999D03*
%TO.P,D13,2,A*%
%TO.N,Net-(D13-A)*%
X130899999Y-95874999D03*
%TD*%
D11*
%TO.P,D12,2,A*%
%TO.N,Net-(D12-A)*%
X130049999Y-93199999D03*
X130049999Y-90399999D03*
X131749999Y-90399999D03*
%TO.P,D12,1,K*%
%TO.N,GND*%
X131749999Y-93199999D03*
%TD*%
%TO.P,D11,1,K*%
%TO.N,Net-(D11-K)*%
X131749999Y-82199999D03*
%TO.P,D11,2,A*%
%TO.N,Net-(D11-A)*%
X131749999Y-79399999D03*
X130049999Y-79399999D03*
X130049999Y-82199999D03*
%TD*%
D10*
%TO.P,D10,1,K*%
%TO.N,Net-(D10-K)*%
X120649999Y-76649999D03*
%TO.P,D10,2,A*%
%TO.N,Net-(D10-A)*%
X117849999Y-76649999D03*
X117849999Y-78349999D03*
X120649999Y-78349999D03*
%TD*%
D12*
%TO.P,D6,2,A*%
%TO.N,Net-(D6-A)*%
X130899999Y-84874999D03*
%TO.P,D6,1,K*%
%TO.N,GND*%
X130899999Y-87724999D03*
%TD*%
D13*
%TO.P,D5,1,K*%
%TO.N,Net-(D5-K)*%
X126174999Y-77499999D03*
%TO.P,D5,2,A*%
%TO.N,Net-(D5-A)*%
X123324999Y-77499999D03*
%TD*%
%TO.P,D4,1,K*%
%TO.N,Net-(D4-K)*%
X115174999Y-77499999D03*
%TO.P,D4,2,A*%
%TO.N,Net-(D4-A)*%
X112324999Y-77499999D03*
%TD*%
D10*
%TO.P,D9,1,K*%
%TO.N,Net-(D9-K)*%
X109649999Y-76649999D03*
%TO.P,D9,2,A*%
%TO.N,Net-(D9-A)*%
X106849999Y-76649999D03*
X106849999Y-78349999D03*
X109649999Y-78349999D03*
%TD*%
%TO.P,D8,1,K*%
%TO.N,Net-(D8-K)*%
X98649999Y-76649999D03*
%TO.P,D8,2,A*%
%TO.N,Net-(D8-A)*%
X95849999Y-76649999D03*
X95849999Y-78349999D03*
X98649999Y-78349999D03*
%TD*%
%TO.P,D7,1,K*%
%TO.N,Net-(D7-K)*%
X87649999Y-76649999D03*
%TO.P,D7,2,A*%
%TO.N,Net-(D7-A)*%
X84849999Y-76649999D03*
X84849999Y-78349999D03*
X87649999Y-78349999D03*
%TD*%
D13*
%TO.P,D3,1,K*%
%TO.N,Net-(D3-K)*%
X104174999Y-77499999D03*
%TO.P,D3,2,A*%
%TO.N,Net-(D3-A)*%
X101324999Y-77499999D03*
%TD*%
%TO.P,D2,1,K*%
%TO.N,Net-(D2-K)*%
X93174999Y-77499999D03*
%TO.P,D2,2,A*%
%TO.N,Net-(D2-A)*%
X90324999Y-77499999D03*
%TD*%
%TO.P,D1,1,K*%
%TO.N,Net-(D1-K)*%
X82174999Y-77499999D03*
%TO.P,D1,2,A*%
%TO.N,Net-(D1-A)*%
X79324999Y-77499999D03*
%TD*%
D14*
%TO.N,VCCO*%
X128800000Y-106950000D03*
X80500000Y-79150000D03*
X86500000Y-120950000D03*
%TO.N,GND*%
X132300000Y-102900000D03*
%TO.N,VCCW*%
X132650000Y-99900000D03*
X73800000Y-75750000D03*
X93250000Y-124349502D03*
X132650000Y-90350000D03*
%TO.N,GND*%
X90350000Y-124300000D03*
X132650000Y-87750000D03*
X132650000Y-93200000D03*
X95850000Y-124300000D03*
X69100000Y-77750000D03*
X76650000Y-75800000D03*
%TO.N,Net-(D14-A)*%
X130100000Y-105249502D03*
%TO.N,Net-(D13-K)*%
X132700000Y-96550000D03*
%TO.N,Net-(D19-A)*%
X128850000Y-103500000D03*
%TO.N,Net-(D33-A)*%
X70775000Y-109700000D03*
%TO.N,Net-(D32-A)*%
X73800000Y-120700000D03*
%TO.N,Net-(D32-K)*%
X67425000Y-117900000D03*
%TO.N,Net-(D31-A)*%
X82150000Y-120925000D03*
%TO.N,Net-(D31-K)*%
X79350000Y-124275000D03*
%TO.N,Net-(D27-A)*%
X70775000Y-115225000D03*
%TO.N,Net-(D26-A)*%
X76677500Y-120925000D03*
%TO.N,Net-(D26-K)*%
X73825000Y-124275000D03*
%TO.N,Net-(D25-A)*%
X87675000Y-120925000D03*
%TO.N,Net-(D25-K)*%
X84822500Y-124275000D03*
%TO.N,Net-(D29-A)*%
X70775000Y-93237500D03*
%TO.N,Net-(D28-A)*%
X70775000Y-104237500D03*
%TO.N,Net-(D30-A)*%
X70775000Y-82237500D03*
%TO.N,Net-(D34-A)*%
X70775000Y-98700000D03*
%TO.N,Net-(D35-A)*%
X70775000Y-87700000D03*
%TO.N,Net-(D36-A)*%
X73850000Y-79175000D03*
%TO.N,Net-(D27-K)*%
X67425000Y-112375000D03*
%TO.N,Net-(D28-K)*%
X67425000Y-101375000D03*
%TO.N,Net-(D29-K)*%
X67425000Y-90350000D03*
%TO.N,Net-(D33-K)*%
X67425000Y-106900000D03*
%TO.N,Net-(D34-K)*%
X67425000Y-95900000D03*
%TO.N,Net-(D35-K)*%
X67425000Y-84900000D03*
%TO.N,Net-(D21-A)*%
X126150000Y-120925000D03*
%TO.N,Net-(D20-A)*%
X129225000Y-112400000D03*
%TO.N,Net-(D20-K)*%
X132575000Y-115200000D03*
%TO.N,Net-(D19-K)*%
X133100000Y-104200000D03*
%TO.N,Net-(D15-A)*%
X129225000Y-117875000D03*
%TO.N,Net-(D14-K)*%
X132575000Y-109725000D03*
%TO.N,Net-(D13-A)*%
X128750000Y-95875000D03*
%TO.N,Net-(D17-A)*%
X109687500Y-120925000D03*
%TO.N,Net-(D16-A)*%
X120687500Y-120925000D03*
%TO.N,Net-(D18-A)*%
X98687500Y-120925000D03*
%TO.N,Net-(D22-A)*%
X115150000Y-120925000D03*
%TO.N,Net-(D23-A)*%
X104150000Y-120925000D03*
%TO.N,Net-(D24-A)*%
X93150000Y-120925000D03*
%TO.N,Net-(D15-K)*%
X132575000Y-120725000D03*
%TO.N,Net-(D16-K)*%
X117825000Y-124275000D03*
%TO.N,Net-(D17-K)*%
X106800000Y-124275000D03*
%TO.N,Net-(D21-K)*%
X123350000Y-124275000D03*
%TO.N,Net-(D22-K)*%
X112350000Y-124275000D03*
%TO.N,Net-(D23-K)*%
X101350000Y-124275000D03*
%TO.N,Net-(D11-K)*%
X132575000Y-82200000D03*
%TO.N,Net-(D10-K)*%
X120650000Y-75825000D03*
%TO.N,Net-(D9-K)*%
X109650000Y-75825000D03*
%TO.N,Net-(D5-K)*%
X126200000Y-75825000D03*
%TO.N,Net-(D4-K)*%
X115175000Y-75825000D03*
%TO.N,Net-(D3-K)*%
X104175000Y-75825000D03*
%TO.N,Net-(D12-A)*%
X129225000Y-90400000D03*
%TO.N,Net-(D11-A)*%
X126250000Y-79400000D03*
%TO.N,Net-(D10-A)*%
X117850000Y-79175000D03*
%TO.N,Net-(D6-A)*%
X129225000Y-84862500D03*
%TO.N,Net-(D4-A)*%
X112312500Y-79175000D03*
%TO.N,Net-(D5-A)*%
X123312500Y-79175000D03*
%TO.N,Net-(D1-K)*%
X82177500Y-75825000D03*
%TO.N,Net-(D1-A)*%
X79325000Y-79175000D03*
%TO.N,Net-(D2-K)*%
X93175000Y-75825000D03*
%TO.N,Net-(D2-A)*%
X90322500Y-79175000D03*
%TO.N,Net-(D3-A)*%
X101325000Y-79175000D03*
%TO.N,Net-(D7-K)*%
X87650000Y-75825000D03*
%TO.N,Net-(D7-A)*%
X84850000Y-79175000D03*
%TO.N,Net-(D8-K)*%
X98650000Y-75825000D03*
%TO.N,Net-(D8-A)*%
X95850000Y-79175000D03*
%TO.N,Net-(D9-A)*%
X106850000Y-79175000D03*
%TD*%
D15*
%TO.N,Net-(D14-A)*%
X130900000Y-106049502D02*
X130900000Y-106875000D01*
X130100000Y-105249502D02*
X130900000Y-106049502D01*
%TO.N,GND*%
X90350000Y-123450000D02*
X90350000Y-124300000D01*
X132625000Y-87725000D02*
X132650000Y-87750000D01*
X130900000Y-87725000D02*
X132625000Y-87725000D01*
X131750000Y-93200000D02*
X132650000Y-93200000D01*
X95825000Y-124275000D02*
X95850000Y-124300000D01*
X95825000Y-122600000D02*
X95825000Y-124275000D01*
X69100000Y-79375000D02*
X69100000Y-77750000D01*
X76650000Y-76650000D02*
X76650000Y-75800000D01*
%TO.N,Net-(D11-A)*%
X130050000Y-79400000D02*
X126250000Y-79400000D01*
%TO.N,Net-(D32-A)*%
X69950000Y-120700000D02*
X73800000Y-120700000D01*
%TO.N,Net-(D13-K)*%
X131325000Y-98725000D02*
X130900000Y-98725000D01*
X132700000Y-96550000D02*
X132700000Y-97350000D01*
X132700000Y-97350000D02*
X131325000Y-98725000D01*
%TO.N,Net-(D19-A)*%
X128850000Y-103800000D02*
X128850000Y-103500000D01*
X130050000Y-104200000D02*
X129250000Y-104200000D01*
X129250000Y-104200000D02*
X128850000Y-103800000D01*
%TO.N,Net-(D19-K)*%
X131750000Y-104200000D02*
X133100000Y-104200000D01*
%TO.N,Net-(D13-A)*%
X130900000Y-95875000D02*
X128750000Y-95875000D01*
%TO.N,Net-(D33-A)*%
X69950000Y-109700000D02*
X70775000Y-109700000D01*
%TO.N,Net-(D32-K)*%
X68250000Y-117900000D02*
X67425000Y-117900000D01*
%TO.N,Net-(D31-A)*%
X82150000Y-121750000D02*
X82150000Y-120925000D01*
%TO.N,Net-(D31-K)*%
X79350000Y-123450000D02*
X79350000Y-124275000D01*
%TO.N,Net-(D27-A)*%
X69100000Y-115225000D02*
X70775000Y-115225000D01*
%TO.N,Net-(D26-A)*%
X76677500Y-122600000D02*
X76677500Y-120925000D01*
%TO.N,Net-(D26-K)*%
X73825000Y-122600000D02*
X73825000Y-124275000D01*
%TO.N,Net-(D25-A)*%
X87675000Y-122600000D02*
X87675000Y-120925000D01*
%TO.N,Net-(D25-K)*%
X84822500Y-122600000D02*
X84822500Y-124275000D01*
%TO.N,Net-(D33-A)*%
X69950000Y-106900000D02*
X69950000Y-109700000D01*
%TO.N,Net-(D32-A)*%
X69950000Y-117900000D02*
X69950000Y-120700000D01*
%TO.N,Net-(D33-A)*%
X68250000Y-109700000D02*
X69950000Y-109700000D01*
%TO.N,Net-(D31-A)*%
X79350000Y-121750000D02*
X82150000Y-121750000D01*
%TO.N,Net-(D32-A)*%
X68250000Y-120700000D02*
X69950000Y-120700000D01*
%TO.N,Net-(D31-A)*%
X82150000Y-123450000D02*
X82150000Y-121750000D01*
%TO.N,Net-(D29-A)*%
X69100000Y-93237500D02*
X70775000Y-93237500D01*
%TO.N,Net-(D28-A)*%
X69100000Y-104237500D02*
X70775000Y-104237500D01*
%TO.N,Net-(D30-A)*%
X69100000Y-82237500D02*
X70775000Y-82237500D01*
%TO.N,Net-(D34-A)*%
X69950000Y-98700000D02*
X70775000Y-98700000D01*
%TO.N,Net-(D35-A)*%
X69950000Y-87700000D02*
X70775000Y-87700000D01*
%TO.N,Net-(D36-A)*%
X73850000Y-78350000D02*
X73850000Y-79175000D01*
%TO.N,Net-(D27-K)*%
X69100000Y-112375000D02*
X67425000Y-112375000D01*
%TO.N,Net-(D28-K)*%
X69100000Y-101375000D02*
X67425000Y-101375000D01*
%TO.N,Net-(D29-K)*%
X69100000Y-90350000D02*
X67425000Y-90350000D01*
%TO.N,Net-(D33-K)*%
X68250000Y-106900000D02*
X67425000Y-106900000D01*
%TO.N,Net-(D34-K)*%
X68250000Y-95900000D02*
X67425000Y-95900000D01*
%TO.N,Net-(D35-K)*%
X68250000Y-84900000D02*
X67425000Y-84900000D01*
%TO.N,Net-(D34-A)*%
X68250000Y-98700000D02*
X69950000Y-98700000D01*
X69950000Y-95900000D02*
X69950000Y-98700000D01*
%TO.N,Net-(D35-A)*%
X68250000Y-87700000D02*
X69950000Y-87700000D01*
X69950000Y-84900000D02*
X69950000Y-87700000D01*
%TO.N,Net-(D36-A)*%
X73850000Y-76650000D02*
X73850000Y-78350000D01*
X76650000Y-78350000D02*
X73850000Y-78350000D01*
%TO.N,Net-(D21-A)*%
X126150000Y-121750000D02*
X126150000Y-120925000D01*
%TO.N,Net-(D20-A)*%
X130050000Y-112400000D02*
X129225000Y-112400000D01*
%TO.N,Net-(D20-K)*%
X131750000Y-115200000D02*
X132575000Y-115200000D01*
%TO.N,Net-(D15-A)*%
X130900000Y-117875000D02*
X129225000Y-117875000D01*
%TO.N,Net-(D14-K)*%
X130900000Y-109725000D02*
X132575000Y-109725000D01*
%TO.N,Net-(D21-A)*%
X123350000Y-121750000D02*
X126150000Y-121750000D01*
%TO.N,Net-(D20-A)*%
X130050000Y-115200000D02*
X130050000Y-112400000D01*
%TO.N,Net-(D21-A)*%
X126150000Y-123450000D02*
X126150000Y-121750000D01*
%TO.N,Net-(D19-A)*%
X130050000Y-104200000D02*
X130050000Y-101400000D01*
%TO.N,Net-(D20-A)*%
X131750000Y-112400000D02*
X130050000Y-112400000D01*
%TO.N,Net-(D19-A)*%
X131750000Y-101400000D02*
X130050000Y-101400000D01*
%TO.N,Net-(D17-A)*%
X109687500Y-122600000D02*
X109687500Y-120925000D01*
%TO.N,Net-(D16-A)*%
X120687500Y-122600000D02*
X120687500Y-120925000D01*
%TO.N,Net-(D18-A)*%
X98687500Y-122600000D02*
X98687500Y-120925000D01*
%TO.N,Net-(D22-A)*%
X115150000Y-121750000D02*
X115150000Y-120925000D01*
%TO.N,Net-(D23-A)*%
X104150000Y-121750000D02*
X104150000Y-120925000D01*
%TO.N,Net-(D24-A)*%
X93150000Y-121750000D02*
X93150000Y-120925000D01*
%TO.N,Net-(D15-K)*%
X130900000Y-120725000D02*
X132575000Y-120725000D01*
%TO.N,Net-(D16-K)*%
X117825000Y-122600000D02*
X117825000Y-124275000D01*
%TO.N,Net-(D17-K)*%
X106800000Y-122600000D02*
X106800000Y-124275000D01*
%TO.N,Net-(D21-K)*%
X123350000Y-123450000D02*
X123350000Y-124275000D01*
%TO.N,Net-(D22-K)*%
X112350000Y-123450000D02*
X112350000Y-124275000D01*
%TO.N,Net-(D23-K)*%
X101350000Y-123450000D02*
X101350000Y-124275000D01*
%TO.N,Net-(D22-A)*%
X115150000Y-123450000D02*
X115150000Y-121750000D01*
X112350000Y-121750000D02*
X115150000Y-121750000D01*
%TO.N,Net-(D23-A)*%
X104150000Y-123450000D02*
X104150000Y-121750000D01*
X101350000Y-121750000D02*
X104150000Y-121750000D01*
%TO.N,Net-(D24-A)*%
X93150000Y-123450000D02*
X93150000Y-121750000D01*
X90350000Y-121750000D02*
X93150000Y-121750000D01*
%TO.N,Net-(D12-A)*%
X130050000Y-93200000D02*
X130050000Y-90400000D01*
X131750000Y-90400000D02*
X130050000Y-90400000D01*
%TO.N,Net-(D11-A)*%
X130050000Y-82200000D02*
X130050000Y-79400000D01*
X131750000Y-79400000D02*
X130050000Y-79400000D01*
%TO.N,Net-(D10-A)*%
X120650000Y-78350000D02*
X117850000Y-78350000D01*
X117850000Y-76650000D02*
X117850000Y-78350000D01*
%TO.N,Net-(D11-K)*%
X131750000Y-82200000D02*
X132575000Y-82200000D01*
%TO.N,Net-(D10-K)*%
X120650000Y-76650000D02*
X120650000Y-75825000D01*
%TO.N,Net-(D9-K)*%
X109650000Y-76650000D02*
X109650000Y-75825000D01*
%TO.N,Net-(D5-K)*%
X126200000Y-77500000D02*
X126200000Y-75825000D01*
%TO.N,Net-(D4-K)*%
X115175000Y-77500000D02*
X115175000Y-75825000D01*
%TO.N,Net-(D3-K)*%
X104175000Y-77500000D02*
X104175000Y-75825000D01*
%TO.N,Net-(D12-A)*%
X130050000Y-90400000D02*
X129225000Y-90400000D01*
%TO.N,Net-(D10-A)*%
X117850000Y-78350000D02*
X117850000Y-79175000D01*
%TO.N,Net-(D6-A)*%
X130900000Y-84862500D02*
X129225000Y-84862500D01*
%TO.N,Net-(D4-A)*%
X112312500Y-77500000D02*
X112312500Y-79175000D01*
%TO.N,Net-(D5-A)*%
X123312500Y-77500000D02*
X123312500Y-79175000D01*
%TO.N,Net-(D7-A)*%
X84850000Y-76650000D02*
X84850000Y-78350000D01*
%TO.N,Net-(D8-A)*%
X95850000Y-76650000D02*
X95850000Y-78350000D01*
%TO.N,Net-(D7-A)*%
X87650000Y-78350000D02*
X84850000Y-78350000D01*
%TO.N,Net-(D9-A)*%
X106850000Y-76650000D02*
X106850000Y-78350000D01*
%TO.N,Net-(D8-A)*%
X98650000Y-78350000D02*
X95850000Y-78350000D01*
%TO.N,Net-(D9-A)*%
X109650000Y-78350000D02*
X106850000Y-78350000D01*
%TO.N,Net-(D1-K)*%
X82177500Y-77500000D02*
X82177500Y-75825000D01*
%TO.N,Net-(D1-A)*%
X79325000Y-77500000D02*
X79325000Y-79175000D01*
%TO.N,Net-(D2-K)*%
X93175000Y-77500000D02*
X93175000Y-75825000D01*
%TO.N,Net-(D2-A)*%
X90322500Y-77500000D02*
X90322500Y-79175000D01*
%TO.N,Net-(D3-A)*%
X101325000Y-77500000D02*
X101325000Y-79175000D01*
%TO.N,Net-(D7-K)*%
X87650000Y-76650000D02*
X87650000Y-75825000D01*
%TO.N,Net-(D7-A)*%
X84850000Y-78350000D02*
X84850000Y-79175000D01*
%TO.N,Net-(D8-K)*%
X98650000Y-76650000D02*
X98650000Y-75825000D01*
%TO.N,Net-(D8-A)*%
X95850000Y-78350000D02*
X95850000Y-79175000D01*
%TO.N,Net-(D9-A)*%
X106850000Y-78350000D02*
X106850000Y-79175000D01*
%TD*%
M02*
