%TF.GenerationSoftware,KiCad,Pcbnew,(7.0.0)*%
%TF.CreationDate,2023-07-18T21:43:11+02:00*%
%TF.ProjectId,Catcar_Ringlight,43617463-6172-45f5-9269-6e676c696768,1.0*%
%TF.SameCoordinates,Original*%
%TF.FileFunction,Copper,L3,Inr*%
%TF.FilePolarity,Positive*%
%FSLAX46Y46*%
G04 Gerber Fmt 4.6, Leading zero omitted, Abs format (unit mm)*
G04 Created by KiCad (PCBNEW (7.0.0)) date 2023-07-18 21:43:11*
%MOMM*%
%LPD*%
G01*
G04 APERTURE LIST*
%TA.AperFunction,ViaPad*%
%ADD10C,0.500000*%
%TD*%
%TA.AperFunction,Conductor*%
%ADD11C,0.350000*%
%TD*%
%TA.AperFunction,Conductor*%
%ADD12C,1.000000*%
%TD*%
%TA.AperFunction,Conductor*%
%ADD13C,0.500000*%
%TD*%
G04 APERTURE END LIST*
D10*
%TO.N,VCCO*%
X128800000Y-106950000D03*
X80500000Y-79150000D03*
X86500000Y-120950000D03*
%TO.N,GND*%
X132300000Y-102900000D03*
%TO.N,VCCW*%
X132650000Y-99900000D03*
X73800000Y-75750000D03*
X93250000Y-124349502D03*
X132650000Y-90350000D03*
%TO.N,GND*%
X90350000Y-124300000D03*
X132650000Y-87750000D03*
X132650000Y-93200000D03*
X95850000Y-124300000D03*
X69100000Y-77750000D03*
X76650000Y-75800000D03*
%TO.N,Net-(D14-A)*%
X130100000Y-105249502D03*
%TO.N,Net-(D13-K)*%
X132700000Y-96550000D03*
%TO.N,Net-(D19-A)*%
X128850000Y-103500000D03*
%TO.N,Net-(D33-A)*%
X70775000Y-109700000D03*
%TO.N,Net-(D32-A)*%
X73800000Y-120700000D03*
%TO.N,Net-(D32-K)*%
X67425000Y-117900000D03*
%TO.N,Net-(D31-A)*%
X82150000Y-120925000D03*
%TO.N,Net-(D31-K)*%
X79350000Y-124275000D03*
%TO.N,Net-(D27-A)*%
X70775000Y-115225000D03*
%TO.N,Net-(D26-A)*%
X76677500Y-120925000D03*
%TO.N,Net-(D26-K)*%
X73825000Y-124275000D03*
%TO.N,Net-(D25-A)*%
X87675000Y-120925000D03*
%TO.N,Net-(D25-K)*%
X84822500Y-124275000D03*
%TO.N,Net-(D29-A)*%
X70775000Y-93237500D03*
%TO.N,Net-(D28-A)*%
X70775000Y-104237500D03*
%TO.N,Net-(D30-A)*%
X70775000Y-82237500D03*
%TO.N,Net-(D34-A)*%
X70775000Y-98700000D03*
%TO.N,Net-(D35-A)*%
X70775000Y-87700000D03*
%TO.N,Net-(D36-A)*%
X73850000Y-79175000D03*
%TO.N,Net-(D27-K)*%
X67425000Y-112375000D03*
%TO.N,Net-(D28-K)*%
X67425000Y-101375000D03*
%TO.N,Net-(D29-K)*%
X67425000Y-90350000D03*
%TO.N,Net-(D33-K)*%
X67425000Y-106900000D03*
%TO.N,Net-(D34-K)*%
X67425000Y-95900000D03*
%TO.N,Net-(D35-K)*%
X67425000Y-84900000D03*
%TO.N,Net-(D21-A)*%
X126150000Y-120925000D03*
%TO.N,Net-(D20-A)*%
X129225000Y-112400000D03*
%TO.N,Net-(D20-K)*%
X132575000Y-115200000D03*
%TO.N,Net-(D19-K)*%
X133100000Y-104200000D03*
%TO.N,Net-(D15-A)*%
X129225000Y-117875000D03*
%TO.N,Net-(D14-K)*%
X132575000Y-109725000D03*
%TO.N,Net-(D13-A)*%
X128750000Y-95875000D03*
%TO.N,Net-(D17-A)*%
X109687500Y-120925000D03*
%TO.N,Net-(D16-A)*%
X120687500Y-120925000D03*
%TO.N,Net-(D18-A)*%
X98687500Y-120925000D03*
%TO.N,Net-(D22-A)*%
X115150000Y-120925000D03*
%TO.N,Net-(D23-A)*%
X104150000Y-120925000D03*
%TO.N,Net-(D24-A)*%
X93150000Y-120925000D03*
%TO.N,Net-(D15-K)*%
X132575000Y-120725000D03*
%TO.N,Net-(D16-K)*%
X117825000Y-124275000D03*
%TO.N,Net-(D17-K)*%
X106800000Y-124275000D03*
%TO.N,Net-(D21-K)*%
X123350000Y-124275000D03*
%TO.N,Net-(D22-K)*%
X112350000Y-124275000D03*
%TO.N,Net-(D23-K)*%
X101350000Y-124275000D03*
%TO.N,Net-(D11-K)*%
X132575000Y-82200000D03*
%TO.N,Net-(D10-K)*%
X120650000Y-75825000D03*
%TO.N,Net-(D9-K)*%
X109650000Y-75825000D03*
%TO.N,Net-(D5-K)*%
X126200000Y-75825000D03*
%TO.N,Net-(D4-K)*%
X115175000Y-75825000D03*
%TO.N,Net-(D3-K)*%
X104175000Y-75825000D03*
%TO.N,Net-(D12-A)*%
X129225000Y-90400000D03*
%TO.N,Net-(D11-A)*%
X126250000Y-79400000D03*
%TO.N,Net-(D10-A)*%
X117850000Y-79175000D03*
%TO.N,Net-(D6-A)*%
X129225000Y-84862500D03*
%TO.N,Net-(D4-A)*%
X112312500Y-79175000D03*
%TO.N,Net-(D5-A)*%
X123312500Y-79175000D03*
%TO.N,Net-(D1-K)*%
X82177500Y-75825000D03*
%TO.N,Net-(D1-A)*%
X79325000Y-79175000D03*
%TO.N,Net-(D2-K)*%
X93175000Y-75825000D03*
%TO.N,Net-(D2-A)*%
X90322500Y-79175000D03*
%TO.N,Net-(D3-A)*%
X101325000Y-79175000D03*
%TO.N,Net-(D7-K)*%
X87650000Y-75825000D03*
%TO.N,Net-(D7-A)*%
X84850000Y-79175000D03*
%TO.N,Net-(D8-K)*%
X98650000Y-75825000D03*
%TO.N,Net-(D8-A)*%
X95850000Y-79175000D03*
%TO.N,Net-(D9-A)*%
X106850000Y-79175000D03*
%TD*%
D11*
%TO.N,VCCO*%
X128800000Y-106950000D02*
X129528249Y-106221751D01*
D12*
X129528249Y-106221751D02*
X129150000Y-105843503D01*
X130300000Y-106993503D02*
X129528249Y-106221751D01*
X128050000Y-78100000D02*
X80500000Y-78100000D01*
X130300000Y-80350000D02*
X128050000Y-78100000D01*
X130300000Y-98900000D02*
X130300000Y-80350000D01*
X129150000Y-105843503D02*
X129150000Y-104543503D01*
X129150000Y-104543503D02*
X129800000Y-103893503D01*
X128050000Y-122000000D02*
X130300000Y-119750000D01*
X130300000Y-119750000D02*
X130300000Y-106993503D01*
X129800000Y-103893503D02*
X129800000Y-99400000D01*
X86500000Y-122000000D02*
X128050000Y-122000000D01*
X129800000Y-99400000D02*
X130300000Y-98900000D01*
%TO.N,VCCW*%
X131500000Y-106102944D02*
X131500000Y-120250000D01*
X131500000Y-120250000D02*
X128550000Y-123200000D01*
X128550000Y-123200000D02*
X93250000Y-123200000D01*
X131350000Y-100050000D02*
X131350000Y-105952944D01*
X131500000Y-99900000D02*
X131350000Y-100050000D01*
X131350000Y-105952944D02*
X131500000Y-106102944D01*
D13*
%TO.N,VCCO*%
X80500000Y-79150000D02*
X80500000Y-78100000D01*
D12*
X80500000Y-78100000D02*
X71850000Y-78100000D01*
D13*
X86500000Y-120950000D02*
X86500000Y-122000000D01*
D12*
X71950000Y-122000000D02*
X86500000Y-122000000D01*
%TO.N,VCCW*%
X131500000Y-90350000D02*
X131500000Y-99900000D01*
D13*
X132650000Y-99900000D02*
X131500000Y-99900000D01*
X73800000Y-75750000D02*
X73800000Y-76900000D01*
D12*
X73800000Y-76900000D02*
X128550000Y-76900000D01*
X71350000Y-76900000D02*
X73800000Y-76900000D01*
D13*
X93250000Y-124349502D02*
X93250000Y-123200000D01*
D12*
X93250000Y-123200000D02*
X71450000Y-123200000D01*
D13*
X132650000Y-90350000D02*
X131500000Y-90350000D01*
D12*
X131500000Y-81000000D02*
X131500000Y-90350000D01*
%TO.N,VCCO*%
X69700000Y-119750000D02*
X71950000Y-122000000D01*
X71850000Y-78100000D02*
X69700000Y-80250000D01*
X69700000Y-80250000D02*
X69700000Y-119750000D01*
%TO.N,VCCW*%
X68500000Y-79750000D02*
X71350000Y-76900000D01*
X131500000Y-79850000D02*
X131500000Y-81000000D01*
X68500000Y-120250000D02*
X68500000Y-79750000D01*
X71450000Y-123200000D02*
X68500000Y-120250000D01*
X128550000Y-76900000D02*
X131500000Y-79850000D01*
%TD*%
M02*
